<svg width="12" height="14" viewBox="0 0 12 14" fill="none" xmlns="http://www.w3.org/2000/svg">
<path fill-rule="evenodd" clip-rule="evenodd" d="M5.88618 1.10728C7.21117 1.10728 8.28529 2.1814 8.28529 3.5064C8.28529 4.83139 7.21117 5.90551 5.88618 5.90551C4.56119 5.90551 3.48706 4.83139 3.48706 3.5064C3.48706 2.1814 4.56119 1.10728 5.88618 1.10728ZM9.39258 3.5064C9.39258 1.56987 7.82271 0 5.88618 0C3.94965 0 2.37978 1.56987 2.37978 3.5064C2.37978 5.44293 3.94965 7.0128 5.88618 7.0128C7.82271 7.0128 9.39258 5.44293 9.39258 3.5064Z" fill="#373737"/>
<path fill-rule="evenodd" clip-rule="evenodd" d="M9.87073 9.94613C7.29458 9.02607 4.47938 9.02607 1.90323 9.94613C1.52547 10.081 1.2733 10.4389 1.2733 10.84V11.8111C1.2733 12.3507 1.75125 12.7653 2.28546 12.6889L2.99 12.5883C4.91157 12.3138 6.86239 12.3138 8.78396 12.5883L9.4885 12.6889C10.0227 12.7653 10.5007 12.3507 10.5007 11.8111V10.84C10.5007 10.4389 10.2485 10.081 9.87073 9.94613ZM1.53081 8.90335C4.34779 7.89729 7.42617 7.89729 10.2432 8.90335C11.0616 9.19566 11.6079 9.97092 11.6079 10.84V11.8111C11.6079 13.0246 10.5332 13.9567 9.33191 13.7851L8.62737 13.6844C6.80967 13.4248 4.96429 13.4248 3.14659 13.6844L2.44205 13.7851C1.24078 13.9567 0.166016 13.0246 0.166016 11.8111V10.84C0.166016 9.97092 0.712355 9.19566 1.53081 8.90335Z" fill="#373737"/>
</svg>
