<svg width="40" height="40" viewBox="0 0 40 40" fill="none" xmlns="http://www.w3.org/2000/svg">
<g clip-path="url(#clip0_1527_6031)">
<path fill-rule="evenodd" clip-rule="evenodd" d="M18.3256 0.952204C19.4313 0.733054 20.5693 0.733054 21.675 0.952204C24.1476 1.44227 26.2814 2.99078 27.5141 5.18953L38.9785 25.6395C39.6486 26.8349 40.0006 28.1824 40.0006 29.5528C40.0006 33.9725 36.4177 37.5554 31.998 37.5554H8.00256C3.58287 37.5554 0 33.9725 0 29.5528C0 28.1824 0.351935 26.8349 1.02208 25.6395L12.4865 5.18953C13.7191 2.99078 15.853 1.44227 18.3256 0.952204ZM21.1152 3.77654C20.3791 3.63065 19.6215 3.63065 18.8854 3.77654C17.2393 4.1028 15.8186 5.13371 14.998 6.59752L3.53362 27.0475C3.10459 27.8128 2.87928 28.6755 2.87928 29.5528C2.87928 32.3824 5.17305 34.6761 8.00256 34.6761H31.998C34.8275 34.6761 37.1213 32.3824 37.1213 29.5528C37.1213 28.6755 36.896 27.8128 36.4669 27.0475L25.0025 6.59751C24.1819 5.13371 22.7613 4.1028 21.1152 3.77654Z" fill="#E48900"/>
<path d="M21.8067 17.208C21.8067 19.0854 21.809 20.9627 21.8067 22.8408C21.8051 23.9995 21.0358 24.8324 19.9886 24.8207C18.9539 24.8089 18.2018 23.9877 18.201 22.8557C18.1986 19.0854 18.1986 15.3158 18.201 11.5455C18.201 10.4018 18.9437 9.60324 19.9956 9.60011C21.0506 9.59698 21.8035 10.3947 21.8059 11.5307C21.8098 13.4229 21.8067 15.3158 21.8067 17.208Z" fill="#E48900"/>
<path d="M19.9821 31.8868C18.6391 31.8806 17.5598 30.7861 17.5684 29.4396C17.577 28.1048 18.6876 27.0103 20.0213 27.0221C21.3572 27.0338 22.4444 28.1408 22.435 29.4787C22.4256 30.8229 21.3353 31.8939 19.9813 31.8868H19.9821Z" fill="#E48900"/>
</g>
<defs>
<clipPath id="clip0_1527_6031">
<rect width="40" height="40" fill="white"/>
</clipPath>
</defs>
</svg>
