<svg width="70" height="70" viewBox="0 0 70 70" fill="none" xmlns="http://www.w3.org/2000/svg">
<path fill-rule="evenodd" clip-rule="evenodd" d="M35 70C54.33 70 70 54.33 70 35C70 15.67 54.33 0 35 0C15.67 0 0 15.67 0 35C0 54.33 15.67 70 35 70ZM35 65.2273C51.6941 65.2273 65.2273 51.6941 65.2273 35C65.2273 18.3059 51.6941 4.77273 35 4.77273C18.3059 4.77273 4.77273 18.3059 4.77273 35C4.77273 51.6941 18.3059 65.2273 35 65.2273Z" fill="#0CAE87"/>
<path fill-rule="evenodd" clip-rule="evenodd" d="M49.2537 24.2583C50.0315 25.0426 50.0263 26.3089 49.242 27.0867L31.5962 44.5867C30.8165 45.36 29.5592 45.36 28.7795 44.5867L20.7587 36.6322C19.9744 35.8544 19.9691 34.5881 20.7469 33.8038C21.5247 33.0195 22.791 33.0142 23.5753 33.792L30.1878 40.3499L46.4253 24.2466C47.2096 23.4688 48.4759 23.474 49.2537 24.2583Z" fill="#0CAE87"/>
</svg>
