<svg width="14" height="14" viewBox="0 0 14 14" fill="none" xmlns="http://www.w3.org/2000/svg">
<path d="M2.62587 14.0019C2.50101 13.9769 2.37615 13.9519 2.25628 13.922C0.952707 13.6223 0.00874043 12.4586 0.0037459 11.12C-0.00124863 8.37805 -0.00124863 5.63605 0.0037459 2.89405C0.00874043 1.30579 1.30232 0.0172034 2.88559 0.00221979C3.77961 -0.00277474 4.67363 0.00221979 5.56266 0.00221979C5.64257 0.00221979 5.72248 0.00221979 5.82737 0.00221979C5.82737 0.0771378 5.82737 0.127083 5.82737 0.182023C5.82737 1.35574 5.83736 2.53445 5.82737 3.70816C5.82238 4.26256 5.86733 4.79198 6.28687 5.25147C6.20695 5.25147 6.15701 5.25147 6.11206 5.25147C5.05322 5.25147 3.99937 5.25147 2.94053 5.25147C2.53098 5.25147 2.25628 5.60109 2.35118 5.98567C2.4211 6.25038 2.65584 6.42019 2.9705 6.42019C3.73466 6.42019 4.50382 6.42019 5.26798 6.42019C5.39784 6.42019 5.53269 6.42019 5.68253 6.42019C5.65756 6.46514 5.63758 6.49012 5.62259 6.52008C5.4328 6.83973 5.23802 7.15938 5.05821 7.48403C5.01326 7.55895 4.97331 7.58392 4.89339 7.58392C4.2491 7.58392 3.6098 7.58392 2.9655 7.58392C2.64086 7.58392 2.40112 7.76372 2.34618 8.0534C2.27126 8.41801 2.54097 8.74764 2.92055 8.75264C3.46496 8.75264 4.00437 8.75264 4.54877 8.75264C4.59871 8.75264 4.64866 8.75264 4.68862 8.75264V9.92136C4.64866 9.92136 4.59372 9.92136 4.54378 9.92136C3.99438 9.92136 3.43998 9.92136 2.89059 9.92136C2.59591 9.92136 2.37115 10.1461 2.34119 10.4458C2.31122 10.7155 2.49102 10.9852 2.76073 11.0551C2.83565 11.0751 2.91556 11.0751 2.99048 11.0751C3.62478 11.0751 4.25909 11.0751 4.8884 11.0751C4.97331 11.0751 5.01826 11.0951 5.05322 11.175C5.77742 12.7433 6.99609 13.6723 8.70422 13.947C8.76415 13.9569 8.82409 13.9769 8.88902 13.9969H2.62587V14.0019Z" fill="#373737"/>
<path d="M13.2894 14.002C13.1445 13.8971 12.9847 13.8022 12.8599 13.6823C12.3954 13.2328 11.9409 12.7684 11.4864 12.3138C11.4514 12.2789 11.4264 12.2339 11.3965 12.194C10.4924 12.8033 9.5335 12.9931 8.49963 12.7484C7.66055 12.5486 6.99128 12.0791 6.49183 11.3799C5.48293 9.97141 5.6927 7.98359 6.96131 6.79988C8.2499 5.6012 10.2327 5.54126 11.5763 6.64006C12.9498 7.76383 13.2944 9.81159 12.2106 11.3749C12.2405 11.4098 12.2705 11.4448 12.3055 11.4798C12.765 11.9393 13.2294 12.3988 13.6839 12.8632C13.8088 12.9881 13.8987 13.1479 14.0036 13.2928V13.5375C13.9287 13.7723 13.7739 13.9271 13.5391 14.002H13.2944H13.2894ZM8.96911 9.99139C8.91917 9.91647 8.89419 9.87152 8.86423 9.84156C8.60451 9.56686 8.3448 9.29216 8.07509 9.02745C7.85034 8.80269 7.50072 8.80769 7.27097 9.02245C7.05121 9.23222 7.01625 9.58683 7.22602 9.81159C7.54068 10.1562 7.85533 10.4958 8.19496 10.8105C8.6195 11.2101 9.33371 11.2101 9.74327 10.8105C10.3426 10.2211 10.922 9.6168 11.5013 9.01246C11.6512 8.85763 11.6911 8.66285 11.6312 8.45308C11.5013 8.01855 10.9719 7.89369 10.6473 8.22832C10.1228 8.75774 9.60342 9.29715 9.08399 9.83157C9.04903 9.86653 9.02905 9.91148 8.97411 9.99139H8.96911Z" fill="#373737"/>
<path d="M7.00085 0.271973C7.5053 0.461765 7.94482 0.721481 8.30942 1.08109C9.07858 1.83526 9.83775 2.59443 10.5869 3.36359C10.9465 3.72819 11.2013 4.16271 11.391 4.66217C11.3361 4.66217 11.2912 4.67216 11.2512 4.67216C10.0475 4.67216 8.84384 4.67216 7.64515 4.67216C7.24059 4.67216 7.00085 4.43242 7.00085 4.02287C7.00085 2.81918 7.00085 1.6155 7.00085 0.416814V0.276967V0.271973Z" fill="#373737"/>
</svg>
