<svg width="12" height="12" viewBox="0 0 12 12" fill="none" xmlns="http://www.w3.org/2000/svg">
<path fill-rule="evenodd" clip-rule="evenodd" d="M10.3431 2.48725C10.5515 2.48725 10.725 2.66028 10.725 2.88045V3.08402C10.725 3.29883 10.5515 3.47722 10.3431 3.47722H1.46485C1.25593 3.47722 1.08244 3.29883 1.08244 3.08402V2.88045C1.08244 2.66028 1.25593 2.48725 1.46485 2.48725H3.02679C3.34408 2.48725 3.6202 2.26173 3.69158 1.94352L3.77338 1.57818C3.9005 1.08052 4.31886 0.75 4.79765 0.75H7.0098C7.48338 0.75 7.90643 1.08052 8.02886 1.55193L8.11639 1.94299C8.18725 2.26173 8.46337 2.48725 8.78118 2.48725H10.3431ZM9.54938 9.92879C9.71245 8.40903 9.99795 4.79845 9.99795 4.76203C10.0084 4.65167 9.97242 4.54721 9.90105 4.46311C9.82446 4.38436 9.72756 4.33776 9.62075 4.33776H2.19032C2.08299 4.33776 1.98088 4.38436 1.91002 4.46311C1.83813 4.54721 1.8027 4.65167 1.80791 4.76203C1.80887 4.76872 1.81911 4.8959 1.83624 5.10853C1.91233 6.0531 2.12424 8.6839 2.26117 9.92879C2.35808 10.8459 2.95983 11.4223 3.83145 11.4432C4.50406 11.4587 5.19698 11.4641 5.90554 11.4641C6.57293 11.4641 7.25075 11.4587 7.94419 11.4432C8.84603 11.4277 9.44726 10.8614 9.54938 9.92879Z" fill="#E50000"/>
</svg>
