<svg width="12" height="12" viewBox="0 0 12 12" fill="none" xmlns="http://www.w3.org/2000/svg">
<path fill-rule="evenodd" clip-rule="evenodd" d="M4.77541 9.74653L8.87572 4.44405C9.09856 4.15811 9.17779 3.82752 9.10351 3.49091C9.03914 3.1849 8.85096 2.89394 8.56869 2.67321L7.88035 2.12641C7.28115 1.64984 6.53834 1.7 6.11247 2.2468L5.65192 2.84427C5.5925 2.91902 5.60736 3.02938 5.68164 3.08958C5.68164 3.08958 6.84537 4.02266 6.87013 4.04272C6.94936 4.11797 7.00879 4.2183 7.02365 4.3387C7.04841 4.57448 6.88499 4.79521 6.64234 4.8253C6.52844 4.84035 6.41949 4.80524 6.34026 4.74002L5.1171 3.76682C5.05768 3.72217 4.96854 3.7317 4.91902 3.7919L2.01216 7.5543C1.82398 7.79008 1.7596 8.09609 1.82398 8.39206L2.19538 10.0024C2.21519 10.0877 2.28947 10.1479 2.37861 10.1479L4.01279 10.1278C4.30991 10.1228 4.58723 9.98732 4.77541 9.74653ZM7.06389 9.24484H9.7286C9.98858 9.24484 10.2 9.45905 10.2 9.72242C10.2 9.98629 9.98858 10.2 9.7286 10.2H7.06389C6.80391 10.2 6.59246 9.98629 6.59246 9.72242C6.59246 9.45905 6.80391 9.24484 7.06389 9.24484Z" fill="#373737"/>
</svg>
