<svg width="14" height="14" viewBox="0 0 14 14" fill="none" xmlns="http://www.w3.org/2000/svg">
<g id="Tempario">
<path id="Vector" d="M12.3588 13.4824H1.64117C1.61115 13.4743 1.58113 13.4642 1.54911 13.4602C0.958685 13.3834 0.514367 13.0823 0.226162 12.563C0.120086 12.371 0.0740529 12.1467 0 11.9386C0 8.6448 0 5.35101 0 2.05925C0.00600429 2.04712 0.0180129 2.03702 0.0200143 2.02489C0.222159 1.06303 0.884632 0.519453 1.85933 0.519453C4.0549 0.519453 6.25046 0.519453 8.44603 0.519453C9.70293 0.519453 10.9598 0.517432 12.2167 0.519453C13.2134 0.523494 13.996 1.29339 13.998 2.27951C14.002 5.42376 14 8.56801 13.998 11.7123C13.998 12.5165 13.4596 13.2096 12.6911 13.4137C12.581 13.442 12.4689 13.4582 12.3588 13.4804V13.4824ZM12.8312 3.47376H1.17484C1.17284 3.52225 1.16883 3.56267 1.16883 3.60308C1.16883 6.28863 1.16883 8.97417 1.16883 11.6597C1.16883 12.0578 1.405 12.2962 1.79728 12.2962C5.26376 12.2962 8.73224 12.2962 12.1987 12.2962C12.2528 12.2962 12.3088 12.2962 12.3608 12.2841C12.663 12.2195 12.8272 11.9891 12.8272 11.6335C12.8272 8.96609 12.8272 6.29873 12.8272 3.63137C12.8272 3.58085 12.8272 3.53236 12.8272 3.47578L12.8312 3.47376Z" fill="#373737"/>
<path id="Vector_2" d="M9.01034 6.99792C8.32786 6.99792 7.64337 6.99792 6.96088 6.99792C6.88082 6.99792 6.83279 7.02015 6.78275 7.08885C6.30641 7.75569 5.35974 7.75569 4.8854 7.08885C4.83736 7.02015 4.78933 6.99792 4.70727 6.99792C4.11084 7.00196 3.51442 7.00196 2.91799 6.99792C2.63379 6.99792 2.40563 6.80393 2.34959 6.53315C2.29355 6.26238 2.41964 5.9916 2.66781 5.88248C2.76388 5.84004 2.87796 5.82186 2.98604 5.82186C3.56045 5.8158 4.13486 5.81782 4.70727 5.82186C4.78733 5.82186 4.83736 5.79963 4.8854 5.73093C5.36774 5.06409 6.30241 5.06611 6.78275 5.73497C6.83879 5.81175 6.89884 5.81984 6.97889 5.81984C8.32786 5.81984 9.67482 5.81984 11.0238 5.81984C11.348 5.81984 11.5842 5.9916 11.6482 6.27046C11.7363 6.65036 11.4661 6.9959 11.0738 6.99792C10.3853 7.00196 9.69884 6.99792 9.01034 6.99792Z" fill="#373737"/>
<path id="Vector_3" d="M5.26575 9.36015C6.04431 9.36015 6.82286 9.36015 7.60342 9.36015C7.69348 9.36015 7.74952 9.33793 7.80556 9.25912C8.2759 8.60036 9.22458 8.59834 9.69491 9.2571C9.74895 9.33388 9.80499 9.36217 9.89506 9.36217C10.2873 9.35813 10.6776 9.35409 11.0699 9.36217C11.4722 9.37026 11.7344 9.70368 11.6503 10.0836C11.5923 10.3422 11.3681 10.5302 11.0979 10.5322C10.6876 10.5362 10.2773 10.5322 9.86904 10.5382C9.813 10.5382 9.73895 10.5787 9.70492 10.6231C9.21257 11.2859 8.28591 11.2879 7.80156 10.6191C7.74552 10.5423 7.68548 10.5342 7.60542 10.5342C6.05631 10.5342 4.50721 10.5342 2.9601 10.5342C2.62386 10.5342 2.3917 10.3442 2.34166 10.031C2.29162 9.71378 2.51779 9.40663 2.83401 9.36824C2.90206 9.36015 2.97011 9.36015 3.03816 9.36015C3.78069 9.36015 4.52322 9.36015 5.26575 9.36015Z" fill="#373737"/>
</g>
</svg>
