<svg width="14" height="14" viewBox="0 0 14 14" fill="none" xmlns="http://www.w3.org/2000/svg">
<path fill-rule="evenodd" clip-rule="evenodd" d="M7.89531 0.106461C7.63631 6.10039e-05 7.30732 6.10352e-05 6.65004 6.10352e-05C5.99276 6.10352e-05 5.66447 6.10039e-05 5.40477 0.106461C5.06 0.248009 4.78556 0.520697 4.64179 0.864561C4.576 1.02066 4.5508 1.20336 4.5403 1.46866C4.53563 1.66088 4.48201 1.84874 4.38451 2.01446C4.28702 2.18019 4.14886 2.31831 3.98311 2.41576C3.81424 2.50963 3.6244 2.55936 3.4312 2.56034C3.23799 2.56132 3.04766 2.51352 2.87784 2.42136C2.64125 2.29676 2.46975 2.22816 2.30036 2.20576C1.92976 2.1571 1.55493 2.25672 1.25739 2.48296C1.03479 2.65236 0.870297 2.93516 0.542006 3.50006C0.213015 4.06496 0.0492195 4.34706 0.0121205 4.62356C-0.0368781 4.99176 0.0639192 5.36416 0.292113 5.65886C0.39571 5.79326 0.542006 5.90596 0.7681 6.04736C1.10199 6.25526 1.31618 6.60946 1.31618 7.00006C1.31618 7.39066 1.10199 7.74486 0.7688 7.95206C0.542006 8.09416 0.39571 8.20686 0.291413 8.34126C0.178774 8.48682 0.0960968 8.65326 0.0481586 8.83096C0.000220418 9.00866 -0.0120283 9.1941 0.0121205 9.37656C0.0492195 9.65236 0.213015 9.93516 0.542006 10.5001C0.870997 11.065 1.03479 11.3471 1.25739 11.5172C1.55418 11.7433 1.92937 11.8427 2.30036 11.7944C2.46975 11.772 2.64125 11.7034 2.87784 11.5788C3.04775 11.4865 3.2382 11.4386 3.43155 11.4396C3.62489 11.4406 3.81485 11.4904 3.98381 11.5844C4.324 11.7804 4.5256 12.1409 4.5403 12.5315C4.5508 12.7975 4.576 12.9795 4.64179 13.1356C4.78459 13.4786 5.05898 13.7516 5.40477 13.8937C5.66377 14.0001 5.99276 14.0001 6.65004 14.0001C7.30732 14.0001 7.63631 14.0001 7.89531 13.8937C8.24008 13.7521 8.51452 13.4794 8.65828 13.1356C8.72408 12.9795 8.74928 12.7975 8.75978 12.5315C8.77378 12.1409 8.97608 11.7797 9.31697 11.5844C9.48584 11.4905 9.67568 11.4408 9.86888 11.4398C10.0621 11.4388 10.2524 11.4866 10.4222 11.5788C10.6588 11.7034 10.8303 11.772 10.9997 11.7944C11.3707 11.8434 11.7459 11.7433 12.0427 11.5172C12.2653 11.3478 12.4298 11.065 12.7581 10.5001C13.0871 9.93516 13.2509 9.65306 13.288 9.37656C13.312 9.19405 13.2996 9.00859 13.2516 8.83088C13.2035 8.65318 13.1207 8.48677 13.008 8.34126C12.9044 8.20686 12.7581 8.09416 12.532 7.95276C12.1981 7.74486 11.9839 7.39066 11.9839 7.00006C11.9839 6.60946 12.1981 6.25526 12.5313 6.04806C12.7581 5.90596 12.9044 5.79326 13.0087 5.65886C13.1213 5.5133 13.204 5.34686 13.2519 5.16916C13.2999 4.99146 13.3121 4.80602 13.288 4.62356C13.2509 4.34776 13.0871 4.06496 12.7581 3.50006C12.4291 2.93516 12.2653 2.65306 12.0427 2.48296C11.7451 2.25672 11.3703 2.1571 10.9997 2.20576C10.8303 2.22816 10.6588 2.29676 10.4222 2.42136C10.2523 2.51364 10.0619 2.56151 9.86853 2.56053C9.67519 2.55955 9.48523 2.50976 9.31627 2.41576C9.15065 2.31822 9.01263 2.18007 8.91526 2.01435C8.81789 1.84863 8.76438 1.66082 8.75978 1.46866C8.74928 1.20266 8.72408 1.02066 8.65828 0.864561C8.58713 0.694276 8.48313 0.539679 8.35221 0.409601C8.2213 0.279524 8.06604 0.176515 7.89531 0.106461ZM6.65004 9.10006C7.81901 9.10006 8.76608 8.15996 8.76608 7.00006C8.76608 5.84016 7.81831 4.90006 6.65004 4.90006C5.48107 4.90006 4.534 5.84016 4.534 7.00006C4.534 8.15996 5.48177 9.10006 6.65004 9.10006Z" fill="#373737"/>
</svg>
