<svg width="14" height="14" viewBox="0 0 14 14" fill="none" xmlns="http://www.w3.org/2000/svg">
<path fill-rule="evenodd" clip-rule="evenodd" d="M6.40763 2.59C4.29923 2.59 2.59003 4.2992 2.59003 6.4076C2.59003 8.51601 4.29923 10.2252 6.40763 10.2252C7.27963 10.2252 8.08335 9.93284 8.72611 9.4408L10.6977 11.4123C10.8951 11.6098 11.2152 11.6098 11.4127 11.4123C11.6101 11.2149 11.6101 10.8948 11.4127 10.6973L9.44108 8.72575C9.93297 8.08305 10.2252 7.27946 10.2252 6.4076C10.2252 4.2992 8.51604 2.59 6.40763 2.59ZM3.6012 6.4076C3.6012 4.85765 4.85768 3.60117 6.40763 3.60117C7.95758 3.60117 9.21407 4.85765 9.21407 6.4076C9.21407 7.95755 7.95758 9.21403 6.40763 9.21403C4.85768 9.21403 3.6012 7.95755 3.6012 6.4076Z" fill="#373737"/>
</svg>
