<svg width="14" height="14" viewBox="0 0 14 14" fill="none" xmlns="http://www.w3.org/2000/svg">
<g id="Vector">
<path id="Vector_2" d="M0 11.3125C0 10.2083 0 9.125 0 8.02083C0.040521 8.02083 0.0607815 8.02083 0.101302 8.02083C2.16787 8.02083 4.23444 8.02083 6.30101 8.02083C6.34153 8.02083 6.38205 8.02083 6.44284 8.02083C6.44284 8.10417 6.44284 8.16667 6.44284 8.25C6.44284 8.41667 6.44284 8.58333 6.44284 8.75C6.50362 9.04167 6.767 9.22917 7.07091 9.1875C7.3343 9.16667 7.55716 8.91667 7.57742 8.625C7.57742 8.41667 7.57742 8.20833 7.57742 8H14C14 8 14 8.0625 14 8.08333C14 9.0625 14 10.0417 14 11.0417C14 12.2708 13.2301 13.375 12.1158 13.7917C11.8726 13.875 11.6093 13.9167 11.3459 14H2.65412C2.65412 14 2.59334 14 2.55282 13.9792C1.37771 13.8333 0.40521 12.9792 0.101302 11.7917C0.0607815 11.625 0.040521 11.4583 0 11.3125Z" fill="#373737"/>
<path id="Vector_3" d="M0 7C0 6.31064 0 5.64156 0 4.97248C0 4.93193 0.0202707 4.89138 0.0202707 4.85083C0.162165 3.7357 0.993263 2.76249 2.06761 2.43809C2.51356 2.31644 2.93925 2.31644 3.40547 2.31644C3.50683 2.31644 3.56764 2.31644 3.60818 2.17451C3.89197 0.998552 4.88523 0.12672 6.0812 0.025344C6.58797 -0.0152064 7.07446 0.00506879 7.58123 0.00506879C8.9191 0.00506879 10.0745 0.897176 10.3989 2.19479C10.4191 2.31644 10.4799 2.33671 10.5813 2.33671C10.9056 2.33671 11.2502 2.33671 11.5746 2.37726C12.8111 2.55974 13.8651 3.63432 13.9665 4.89138C14.0273 5.58074 13.9868 6.27009 13.9868 6.95945C13.9868 6.95945 13.9868 6.95945 13.9868 7H0ZM9.22316 2.31644C9.22316 2.31644 9.22316 2.27589 9.22316 2.25561C9.00018 1.64736 8.37179 1.18103 7.72312 1.16075C7.27717 1.16075 6.83122 1.16075 6.38526 1.16075C6.00012 1.16075 5.63525 1.30268 5.35146 1.54598C5.10821 1.74873 4.92577 1.99203 4.82442 2.31644H9.2637H9.22316Z" fill="#373737"/>
</g>
</svg>
