<svg width="20" height="20" viewBox="0 0 20 20" fill="none" xmlns="http://www.w3.org/2000/svg">
<path d="M4 17.1822C4.08011 16.8936 4.12817 16.573 4.24032 16.3004C4.6729 15.1301 5.48999 14.2644 6.5474 13.6231C8.93458 12.1481 12.1228 12.3886 14.2697 14.2002C15.1348 14.9377 15.7437 15.8515 15.968 16.9898C16 17.1341 16.016 17.2944 16 17.4387C15.968 17.7433 15.7597 17.9036 15.4873 17.9998H4.5287C4.25634 17.9197 4.08011 17.7273 4 17.4708C4 17.3746 4 17.2784 4 17.1822Z" fill="#373737"/>
<path d="M10.6637 2C11.0803 2.03206 11.4488 2.12826 11.8172 2.28858C13.0509 2.86573 13.7719 3.84369 13.9801 5.19038C13.9801 5.27054 14.0122 5.31864 14.1083 5.33467C14.4608 5.38277 14.7011 5.67134 14.669 6.04008C14.653 6.37675 14.3807 6.6493 14.0282 6.6493C13.4995 6.6493 12.9868 6.6493 12.4581 6.6493C10.3433 6.6493 8.24448 6.6493 6.12966 6.6493C6.03353 6.6493 5.9374 6.6493 5.84128 6.63327C5.53687 6.55311 5.32859 6.28056 5.34461 5.94389C5.34461 5.63928 5.58493 5.38277 5.90536 5.33467C6.00149 5.33467 6.03353 5.28657 6.04955 5.19038C6.22579 3.57114 7.53954 2.22445 9.14168 2C9.18974 2 9.25383 2 9.33393 2C9.33393 2.08016 9.33393 2.12826 9.33393 2.19238C9.33393 2.8016 9.33393 3.39479 9.33393 4.00401C9.33393 4.32465 9.59028 4.59719 9.89468 4.62926C10.2311 4.66132 10.5355 4.46894 10.6317 4.1483C10.6477 4.06814 10.6637 3.97194 10.6637 3.89178C10.6637 3.33066 10.6637 2.75351 10.6637 2.19238C10.6637 2.12826 10.6637 2.08016 10.6637 2Z" fill="#373737"/>
<path d="M13.9971 7.99609C14.0291 10.0161 12.3469 12.0041 9.97571 11.9881C7.62057 11.9881 5.97037 10.0001 6.00241 7.99609H13.981H13.9971Z" fill="#373737"/>
</svg>
